<?xml version="1.0" encoding="UTF-8" standalone="no"?>
<!DOCTYPE svg PUBLIC "-//W3C//DTD SVG 1.1//EN" "http://www.w3.org/Graphics/SVG/1.1/DTD/svg11.dtd">
<svg width="100%" height="100%" viewBox="0 0 1800 1800" version="1.1" xmlns="http://www.w3.org/2000/svg" xmlns:xlink="http://www.w3.org/1999/xlink" xml:space="preserve" xmlns:serif="http://www.serif.com/" style="fill-rule:evenodd;clip-rule:evenodd;stroke-linejoin:round;stroke-miterlimit:2;">
    <g transform="matrix(8.89377,0,0,8.70503,-155.381,-457.642)">
        <path d="M81.93,202.396L33.121,202.396C25.964,230.399 20.033,253.656 18.459,259.951L67.131,259.951C67.131,259.951 77.565,219.731 81.93,202.396ZM96.115,147.568L47.091,147.769L45.953,152.215C42.458,165.879 38.963,179.543 35.469,193.208L35.29,193.908L156.449,193.908L168.303,147.568L96.115,147.568ZM55.867,113.481C53.896,121.179 51.731,129.639 49.464,138.497L98.419,138.497L104.772,113.481L55.867,113.481ZM18.459,259.951L58.04,104.993L114.065,104.993C114.46,104.939 114.858,104.911 115.256,104.911L201.39,104.911L213.421,58.153L87.639,58.153C78.068,58.153 68.225,65.809 65.764,74.833C65.764,74.833 23.107,241.358 18.459,259.951Z" style="fill:rgb(43,91,255);fill-rule:nonzero;"/>
    </g>
</svg>
