<?xml version="1.0" encoding="UTF-8" standalone="no"?>
<!DOCTYPE svg PUBLIC "-//W3C//DTD SVG 1.1//EN" "http://www.w3.org/Graphics/SVG/1.1/DTD/svg11.dtd">
<svg width="100%" height="100%" viewBox="0 0 1500 300" version="1.1" xmlns="http://www.w3.org/2000/svg" xmlns:xlink="http://www.w3.org/1999/xlink" xml:space="preserve" xmlns:serif="http://www.serif.com/" style="fill-rule:evenodd;clip-rule:evenodd;stroke-linejoin:round;stroke-miterlimit:2;">
    <g transform="matrix(273.44,0,0,273.44,1112.2,259.951)">
        <path d="M0.277,-0.455L0.298,-0.537C0.302,-0.552 0.319,-0.567 0.335,-0.567L0.686,-0.567L0.73,-0.738L0.234,-0.738C0.199,-0.738 0.162,-0.71 0.154,-0.677L0.003,-0.081C-0.009,-0.034 0.018,0 0.065,0L0.541,0L0.585,-0.172L0.231,-0.172C0.216,-0.172 0.207,-0.183 0.211,-0.198L0.233,-0.283L0.524,-0.283L0.568,-0.455L0.277,-0.455Z" style="fill:rgb(255,104,0);fill-rule:nonzero;"/>
    </g>
    <g transform="matrix(273.44,0,0,273.44,522.739,258.001)">
        <path d="M0.394,-0.882L0.216,-0.88L0.186,-0.763L0.363,-0.76L0.394,-0.882Z" style="fill:rgb(255,104,0);fill-rule:nonzero;"/>
    </g>
    <g transform="matrix(273.44,0,0,273.44,1274.99,259.951)">
        <path d="M0.753,-0.656C0.764,-0.701 0.736,-0.738 0.689,-0.738L0.233,-0.738C0.198,-0.738 0.162,-0.71 0.154,-0.677L0.002,-0.081C-0.01,-0.034 0.017,0 0.064,0L0.522,0C0.557,0 0.592,-0.028 0.6,-0.061L0.753,-0.656ZM0.297,-0.537C0.301,-0.552 0.317,-0.567 0.334,-0.567L0.525,-0.567C0.54,-0.567 0.549,-0.555 0.545,-0.54L0.457,-0.2C0.453,-0.185 0.437,-0.172 0.421,-0.172L0.231,-0.172C0.216,-0.172 0.205,-0.183 0.209,-0.198L0.297,-0.537Z" style="fill:rgb(255,104,0);fill-rule:nonzero;"/>
    </g>
    <g transform="matrix(273.44,0,0,273.44,938.469,259.951)">
        <path d="M0.049,-0.283L-0.003,-0.081C-0.015,-0.036 0.014,0 0.061,0L0.517,0C0.552,0 0.586,-0.028 0.595,-0.061L0.637,-0.222C0.646,-0.255 0.629,-0.299 0.601,-0.318L0.315,-0.507C0.298,-0.518 0.292,-0.529 0.296,-0.545C0.3,-0.561 0.313,-0.567 0.329,-0.567L0.52,-0.567C0.535,-0.567 0.544,-0.555 0.54,-0.54L0.518,-0.455L0.696,-0.455L0.748,-0.656C0.76,-0.701 0.731,-0.738 0.684,-0.738L0.228,-0.738C0.193,-0.738 0.159,-0.71 0.15,-0.677L0.107,-0.515C0.098,-0.482 0.116,-0.438 0.145,-0.419L0.433,-0.227C0.449,-0.216 0.452,-0.206 0.449,-0.193C0.446,-0.181 0.433,-0.172 0.417,-0.172L0.226,-0.172C0.211,-0.172 0.202,-0.183 0.206,-0.198L0.227,-0.283L0.049,-0.283Z" style="fill:rgb(255,104,0);fill-rule:nonzero;"/>
    </g>
    <path d="M81.93,202.396L33.121,202.396C25.964,230.399 20.033,253.656 18.459,259.951L67.131,259.951C67.131,259.951 77.565,219.731 81.93,202.396ZM349.53,202.396L300.719,202.396L299.983,205.264C298.889,209.639 294.514,212.92 289.866,212.92L238.186,212.92C233.811,212.92 231.076,209.912 232.17,205.81L233.049,202.396L184.349,202.396L175.295,237.803C172.287,250.108 179.67,259.951 192.521,259.951L317.483,259.951C327.327,259.951 336.897,252.295 339.085,243.272L349.53,202.396ZM819.963,202.396L770.96,202.396L756.298,259.951L805.244,259.951L819.963,202.396ZM936.381,202.396L887.219,202.396L872.51,259.951L921.729,259.951L936.381,202.396ZM758.723,202.396L748.212,243.272C746.025,252.295 736.454,259.951 726.884,259.951L601.648,259.951C588.797,259.951 581.414,250.654 584.695,237.803L593.725,202.396L642.184,202.396L641.297,205.81C640.203,209.912 643.211,212.92 647.313,212.92L699.266,212.92C703.641,212.92 708.016,209.365 709.11,205.264L709.852,202.396L758.723,202.396ZM525.335,202.396L474.541,202.396C475.16,203.878 475.153,205.428 474.75,207.178C473.929,210.459 470.375,212.92 465.999,212.92L413.773,212.92C409.671,212.92 407.21,209.912 408.304,205.81L409.147,202.396L360.27,202.396L351.155,237.803C347.874,250.108 355.803,259.951 368.655,259.951L493.343,259.951C502.914,259.951 512.211,252.295 514.672,243.272L525.335,202.396ZM582.917,202.396L533.848,202.396L519.457,258.001L568.676,258.001L582.917,202.396ZM96.263,146.985L47.292,146.985L45.953,152.215C42.458,165.879 38.963,179.543 35.469,193.208L35.29,193.908L156.449,193.908L168.303,147.568L96.115,147.568L96.263,146.985ZM235.234,193.908L186.519,193.908L198.518,146.985L247.312,146.985L235.234,193.908ZM351.699,193.908L302.896,193.908L314.932,146.985L363.69,146.985L351.699,193.908ZM411.244,193.908L414.046,182.568L365.374,182.568L362.455,193.908L411.244,193.908ZM476.949,146.985L394.031,146.985L464.415,193.908L526.818,193.908C526.764,185.944 522.53,177.217 516.312,172.998L476.949,146.985ZM585.091,193.908L536.045,193.908L548.189,146.985L597.107,146.985L585.091,193.908ZM644.387,193.908L595.89,193.908L607.857,146.985L656.568,146.985L644.387,193.908ZM760.906,193.908L712.049,193.908L724.194,146.985L772.971,146.985L760.906,193.908ZM822.134,193.908L773.123,193.908L785.076,146.985L834.133,146.985L822.134,193.908ZM938.542,193.908L889.388,193.908L901.379,146.985L950.488,146.985L938.542,193.908ZM55.867,113.481C53.896,121.179 51.731,129.639 49.464,138.497L98.419,138.497L104.772,113.481L55.867,113.481ZM249.497,138.497L200.688,138.497L207.085,113.481L255.936,113.481L249.497,138.497ZM365.859,138.497L317.109,138.497L323.526,113.481L372.252,113.481L365.859,138.497ZM432.588,113.481L382.733,113.481L381.233,119.13C379.571,125.225 381.277,132.691 385.003,138.497L464.105,138.497L438.109,121.318C434.423,118.933 432.628,116.548 432.588,113.481ZM599.281,138.497L550.386,138.497L556.86,113.481L605.688,113.481L599.281,138.497ZM658.771,138.497L610.022,138.497L616.401,113.481L665.265,113.481L658.771,138.497ZM775.154,138.497L726.391,138.497L732.866,113.481L781.587,113.481L775.154,138.497ZM836.304,138.497L787.238,138.497L793.611,113.481L842.701,113.481L836.304,138.497ZM952.648,138.497L903.549,138.497L909.942,113.481L959.017,113.481L952.648,138.497ZM547.995,113.481L499.325,113.481L493.617,135.536L542.289,135.536L547.995,113.481ZM18.459,259.951L58.04,104.993L114.065,104.993C114.46,104.939 114.858,104.911 115.256,104.911L201.39,104.911L213.421,58.153L87.639,58.153C78.068,58.153 68.225,65.809 65.764,74.833C65.764,74.833 23.107,241.358 18.459,259.951ZM258.121,104.993L270.178,58.153L221.233,58.153L209.255,104.993L258.121,104.993ZM374.421,104.993L386.39,58.153L337.718,58.153L325.703,104.993L374.421,104.993ZM384.986,104.993L440.309,104.993C440.836,104.938 441.38,104.911 441.937,104.911L494.164,104.911C494.543,104.911 494.908,104.939 495.257,104.993L550.191,104.993L556.508,80.575C559.789,68.27 551.86,58.153 539.008,58.153L414.319,58.153C404.749,58.153 395.452,65.809 392.991,74.833L384.986,104.993ZM607.861,104.993L620.356,56.203L571.684,56.203L559.057,104.993L607.861,104.993ZM618.566,104.993L626.258,74.833C628.446,65.809 638.289,58.153 647.86,58.153L772.548,58.153C785.4,58.153 793.056,68.27 790.048,80.575L783.769,104.993L728.797,104.993C728.448,104.939 728.083,104.911 727.704,104.911L675.477,104.911C675.092,104.911 674.709,104.939 674.33,104.993L618.566,104.993ZM795.773,104.993L844.872,104.993L844.893,104.911L905.05,104.911C905.444,104.911 905.821,104.939 906.179,104.993L961.178,104.993L967.394,80.575C970.675,67.723 962.745,58.153 949.894,58.153L807.705,58.153L795.773,104.993Z" style="fill:rgb(32,65,154);fill-rule:nonzero;"/>
    <g transform="matrix(273.44,0,0,273.44,938.469,259.951)">
        <path d="M0.049,-0.283L-0.003,-0.081C-0.015,-0.036 0.014,0 0.061,0L0.517,0C0.552,0 0.586,-0.028 0.595,-0.061L0.637,-0.222C0.646,-0.255 0.629,-0.299 0.601,-0.318L0.315,-0.507C0.298,-0.518 0.292,-0.529 0.296,-0.545C0.3,-0.561 0.313,-0.567 0.329,-0.567L0.52,-0.567C0.535,-0.567 0.544,-0.555 0.54,-0.54L0.518,-0.455L0.696,-0.455L0.748,-0.656C0.76,-0.701 0.731,-0.738 0.684,-0.738L0.228,-0.738C0.193,-0.738 0.159,-0.71 0.15,-0.677L0.107,-0.515C0.098,-0.482 0.116,-0.438 0.145,-0.419L0.433,-0.227C0.449,-0.216 0.452,-0.206 0.449,-0.193C0.446,-0.181 0.433,-0.172 0.417,-0.172L0.226,-0.172C0.211,-0.172 0.202,-0.183 0.206,-0.198L0.227,-0.283L0.049,-0.283Z" style="fill:rgb(255,104,0);fill-rule:nonzero;"/>
    </g>
    <path d="M81.93,202.396L33.121,202.396C25.964,230.399 20.033,253.656 18.459,259.951L67.131,259.951C67.131,259.951 77.565,219.731 81.93,202.396ZM349.53,202.396L300.719,202.396L299.983,205.264C298.889,209.639 294.514,212.92 289.866,212.92L238.186,212.92C233.811,212.92 231.076,209.912 232.17,205.81L233.049,202.396L184.349,202.396L175.295,237.803C172.287,250.108 179.67,259.951 192.521,259.951L317.483,259.951C327.327,259.951 336.897,252.295 339.085,243.272L349.53,202.396ZM819.963,202.396L770.96,202.396L756.298,259.951L805.244,259.951L819.963,202.396ZM936.381,202.396L887.219,202.396L872.51,259.951L921.729,259.951L936.381,202.396ZM758.723,202.396L748.212,243.272C746.025,252.295 736.454,259.951 726.884,259.951L601.648,259.951C588.797,259.951 581.414,250.654 584.695,237.803L593.725,202.396L642.184,202.396L641.297,205.81C640.203,209.912 643.211,212.92 647.313,212.92L699.266,212.92C703.641,212.92 708.016,209.365 709.11,205.264L709.852,202.396L758.723,202.396ZM525.335,202.396L474.541,202.396C475.16,203.878 475.153,205.428 474.75,207.178C473.929,210.459 470.375,212.92 465.999,212.92L413.773,212.92C409.671,212.92 407.21,209.912 408.304,205.81L409.147,202.396L360.27,202.396L351.155,237.803C347.874,250.108 355.803,259.951 368.655,259.951L493.343,259.951C502.914,259.951 512.211,252.295 514.672,243.272L525.335,202.396ZM582.917,202.396L533.848,202.396L519.457,258.001L568.676,258.001L582.917,202.396ZM96.263,146.985L47.292,146.985L45.953,152.215C42.458,165.879 38.963,179.543 35.469,193.208L35.29,193.908L156.449,193.908L168.303,147.568L96.115,147.568L96.263,146.985ZM235.234,193.908L186.519,193.908L198.518,146.985L247.312,146.985L235.234,193.908ZM351.699,193.908L302.896,193.908L314.932,146.985L363.69,146.985L351.699,193.908ZM411.244,193.908L414.046,182.568L365.374,182.568L362.455,193.908L411.244,193.908ZM476.949,146.985L394.031,146.985L464.415,193.908L526.818,193.908C526.764,185.944 522.53,177.217 516.312,172.998L476.949,146.985ZM585.091,193.908L536.045,193.908L548.189,146.985L597.107,146.985L585.091,193.908ZM644.387,193.908L595.89,193.908L607.857,146.985L656.568,146.985L644.387,193.908ZM760.906,193.908L712.049,193.908L724.194,146.985L772.971,146.985L760.906,193.908ZM822.134,193.908L773.123,193.908L785.076,146.985L834.133,146.985L822.134,193.908ZM938.542,193.908L889.388,193.908L901.379,146.985L950.488,146.985L938.542,193.908ZM55.867,113.481C53.896,121.179 51.731,129.639 49.464,138.497L98.419,138.497L104.772,113.481L55.867,113.481ZM249.497,138.497L200.688,138.497L207.085,113.481L255.936,113.481L249.497,138.497ZM365.859,138.497L317.109,138.497L323.526,113.481L372.252,113.481L365.859,138.497ZM432.588,113.481L382.733,113.481L381.233,119.13C379.571,125.225 381.277,132.691 385.003,138.497L464.105,138.497L438.109,121.318C434.423,118.933 432.628,116.548 432.588,113.481ZM599.281,138.497L550.386,138.497L556.86,113.481L605.688,113.481L599.281,138.497ZM658.771,138.497L610.022,138.497L616.401,113.481L665.265,113.481L658.771,138.497ZM775.154,138.497L726.391,138.497L732.866,113.481L781.587,113.481L775.154,138.497ZM836.304,138.497L787.238,138.497L793.611,113.481L842.701,113.481L836.304,138.497ZM952.648,138.497L903.549,138.497L909.942,113.481L959.017,113.481L952.648,138.497ZM547.995,113.481L499.325,113.481L493.617,135.536L542.289,135.536L547.995,113.481ZM18.459,259.951L58.04,104.993L114.065,104.993C114.46,104.939 114.858,104.911 115.256,104.911L201.39,104.911L213.421,58.153L87.639,58.153C78.068,58.153 68.225,65.809 65.764,74.833C65.764,74.833 23.107,241.358 18.459,259.951ZM258.121,104.993L270.178,58.153L221.233,58.153L209.255,104.993L258.121,104.993ZM374.421,104.993L386.39,58.153L337.718,58.153L325.703,104.993L374.421,104.993ZM384.986,104.993L440.309,104.993C440.836,104.938 441.38,104.911 441.937,104.911L494.164,104.911C494.543,104.911 494.908,104.939 495.257,104.993L550.191,104.993L556.508,80.575C559.789,68.27 551.86,58.153 539.008,58.153L414.319,58.153C404.749,58.153 395.452,65.809 392.991,74.833L384.986,104.993ZM607.861,104.993L620.356,56.203L571.684,56.203L559.057,104.993L607.861,104.993ZM618.566,104.993L626.258,74.833C628.446,65.809 638.289,58.153 647.86,58.153L772.548,58.153C785.4,58.153 793.056,68.27 790.048,80.575L783.769,104.993L728.797,104.993C728.448,104.939 728.083,104.911 727.704,104.911L675.477,104.911C675.092,104.911 674.709,104.939 674.33,104.993L618.566,104.993ZM795.773,104.993L844.872,104.993L844.893,104.911L905.05,104.911C905.444,104.911 905.821,104.939 906.179,104.993L961.178,104.993L967.394,80.575C970.675,67.723 962.745,58.153 949.894,58.153L807.705,58.153L795.773,104.993Z" style="fill:rgb(43,91,255);fill-rule:nonzero;"/>
</svg>
