<?xml version="1.0" encoding="UTF-8" standalone="no"?>
<!DOCTYPE svg PUBLIC "-//W3C//DTD SVG 1.1//EN" "http://www.w3.org/Graphics/SVG/1.1/DTD/svg11.dtd">
<svg width="100%" height="100%" viewBox="0 0 2000 2000" version="1.1" xmlns="http://www.w3.org/2000/svg" xmlns:xlink="http://www.w3.org/1999/xlink" xml:space="preserve" xmlns:serif="http://www.serif.com/" style="fill-rule:evenodd;clip-rule:evenodd;stroke-linejoin:round;stroke-miterlimit:2;">
    <g transform="matrix(0.914265,0,0,0.914265,69.251,97.5684)">
        <circle cx="1016.72" cy="993.845" r="953.43" style="fill:white;"/>
    </g>
    <path d="M1001.45,99.845C1007.73,99.86 1014,99.93 1020.28,100.069C1032.28,100.335 1044.27,100.839 1056.24,101.58C1090.28,103.687 1124.2,107.718 1157.78,113.67C1192.62,119.847 1227.1,128.089 1260.96,138.348C1296.56,149.129 1331.47,162.135 1365.44,177.259C1411.05,197.562 1454.94,221.68 1496.54,249.257C1540.46,278.375 1581.82,311.343 1620,347.648C1656.84,382.679 1690.72,420.811 1721.17,461.514C1751.23,501.716 1777.94,544.424 1800.9,589.06C1820.97,628.088 1838.17,668.586 1852.31,710.128C1865.77,749.671 1876.44,790.154 1884.25,831.185C1889.45,858.529 1893.37,886.115 1896.01,913.823C1898.83,943.42 1900.18,973.155 1900.09,1002.89C1899.96,1043 1897.19,1083.1 1891.75,1122.84C1885.36,1169.55 1875.28,1215.74 1861.62,1260.86C1848.21,1305.17 1831.34,1348.43 1811.24,1390.14C1788.43,1437.45 1761.47,1482.75 1730.77,1525.37C1698.69,1569.91 1662.54,1611.52 1622.93,1649.53C1582.3,1688.5 1538.04,1723.68 1490.88,1754.43C1469.64,1768.28 1447.82,1781.24 1425.49,1793.25C1399.01,1807.49 1371.81,1820.4 1344.03,1831.91C1316.85,1843.17 1289.12,1853.09 1260.96,1861.62C1232.93,1870.11 1204.48,1877.22 1175.74,1882.92C1144.74,1889.07 1113.41,1893.58 1081.93,1896.43C1054.69,1898.89 1027.35,1900.12 1000,1900.12C972.653,1900.12 945.306,1898.89 918.071,1896.43C887.524,1893.66 857.118,1889.34 827.014,1883.46C797.345,1877.67 767.97,1870.38 739.041,1861.62C710.883,1853.09 683.148,1843.17 655.969,1831.91C628.188,1820.4 600.991,1807.49 574.509,1793.25C552.178,1781.24 530.357,1768.28 509.12,1754.43C461.959,1723.67 417.697,1688.5 377.075,1649.53C337.457,1611.52 301.311,1569.91 269.231,1525.37C238.533,1482.75 211.566,1437.45 188.762,1390.14C167.855,1346.77 150.451,1301.72 136.788,1255.55C123.932,1212.12 114.389,1167.71 108.248,1122.84C102.808,1083.1 100.036,1043 99.909,1002.88C99.819,974.581 101.043,946.272 103.594,918.082C106.232,888.943 110.287,859.932 115.752,831.188C123.813,788.799 134.943,746.995 149.035,706.209C163.359,664.751 180.74,624.351 200.98,585.432C224.549,540.111 251.994,496.808 282.897,456.122C313.64,415.649 347.804,377.772 384.904,343.018C421.384,308.845 460.7,277.695 502.329,250.007C544.263,222.117 588.54,197.745 634.556,177.259C667.263,162.698 700.844,150.1 735.063,139.561C770.204,128.738 806.015,120.088 842.223,113.67C875.801,107.719 909.719,103.687 943.757,101.58C955.733,100.839 967.725,100.335 979.722,100.069C985.996,99.93 992.272,99.86 998.548,99.845C999.516,99.844 1000.48,99.844 1001.45,99.845ZM976.241,1698.57L976.241,1857.24L1044.68,1857.24C1056.83,1857.24 1067.39,1855.2 1076.35,1851.12C1085.32,1847.05 1092.8,1841.46 1098.8,1834.35C1104.8,1827.24 1109.28,1818.79 1112.24,1809.01C1115.2,1799.24 1116.68,1788.57 1116.68,1777.01C1116.68,1763.83 1114.87,1752.35 1111.24,1742.57C1107.61,1732.79 1102.57,1724.64 1096.13,1718.12C1089.68,1711.61 1082.06,1706.72 1073.24,1703.46C1064.43,1700.2 1054.91,1698.57 1044.68,1698.57L976.241,1698.57ZM873.314,1787.8L897.186,1692.07L863.333,1683.63L839.462,1779.36C836.595,1790.86 832.189,1798.73 826.245,1802.98C820.301,1807.22 811.291,1807.84 799.217,1804.83C792.317,1803.11 787.06,1800.76 783.448,1797.8C779.835,1794.84 777.264,1791.53 775.734,1787.86C774.205,1784.2 773.583,1780.26 773.867,1776.06C774.152,1771.86 774.814,1767.67 775.854,1763.5L799.725,1667.77L765.873,1659.33L742.002,1755.06C736.768,1776.05 738.611,1793 747.53,1805.91C756.449,1818.82 771.33,1827.88 792.174,1833.07C812.729,1838.2 830.093,1837.14 844.263,1829.91C858.433,1822.68 868.117,1808.65 873.314,1787.8ZM1042.24,1827.9L1011.13,1827.9L1011.13,1727.9L1036.02,1727.9C1044.61,1727.9 1051.83,1729.12 1057.68,1731.57C1063.54,1734.01 1068.24,1737.53 1071.8,1742.12C1075.35,1746.72 1077.91,1752.24 1079.46,1758.68C1081.02,1765.12 1081.8,1772.35 1081.8,1780.35C1081.8,1789.09 1080.68,1796.49 1078.46,1802.57C1076.24,1808.64 1073.28,1813.57 1069.57,1817.35C1065.87,1821.12 1061.65,1823.83 1056.91,1825.46C1052.17,1827.09 1047.28,1827.9 1042.24,1827.9ZM1178.65,1676.77L1227.05,1827.88L1260.28,1817.24L1211.88,1666.13L1178.65,1676.77ZM1316.57,1717.6C1322.43,1727.55 1329.43,1735.94 1337.57,1742.75C1345.71,1749.57 1354.53,1754.47 1364.03,1757.48C1373.53,1760.48 1383.54,1761.34 1394.04,1760.05C1404.55,1758.77 1415.03,1755.04 1425.5,1748.88C1436.1,1742.64 1444.47,1735.26 1450.63,1726.74C1456.79,1718.21 1460.86,1709.07 1462.84,1699.3C1464.83,1689.54 1464.82,1679.44 1462.81,1669.02C1460.8,1658.6 1456.87,1648.41 1451,1638.45C1444.99,1628.24 1437.88,1619.66 1429.66,1612.72C1421.45,1605.78 1412.56,1600.74 1402.98,1597.61C1393.4,1594.49 1383.37,1593.51 1372.89,1594.7C1362.42,1595.88 1351.88,1599.59 1341.28,1605.83C1330.81,1611.99 1322.49,1619.39 1316.31,1628.01C1310.12,1636.64 1306.08,1645.9 1304.16,1655.79C1302.25,1665.68 1302.34,1675.9 1304.42,1686.45C1306.51,1697 1310.56,1707.38 1316.57,1717.6ZM618.575,1619.69L552.805,1731.06L582.846,1748.8L648.616,1637.44L689.564,1661.62L704.481,1636.36L592.545,1570.25L577.628,1595.51L618.575,1619.69ZM1346.63,1699.9C1343.1,1693.89 1340.35,1687.69 1338.39,1681.29C1336.42,1674.88 1335.61,1668.61 1335.95,1662.48C1336.3,1656.34 1338.06,1650.58 1341.24,1645.18C1344.42,1639.78 1349.4,1635.09 1356.16,1631.11C1362.93,1627.12 1369.45,1625.05 1375.71,1624.88C1381.98,1624.72 1387.87,1625.98 1393.4,1628.65C1398.93,1631.33 1404.02,1635.08 1408.67,1639.91C1413.32,1644.74 1417.4,1650.15 1420.94,1656.15C1424.32,1661.9 1426.94,1667.88 1428.79,1674.09C1430.64,1680.31 1431.38,1686.45 1431,1692.52C1430.62,1698.59 1428.84,1704.32 1425.65,1709.72C1422.47,1715.12 1417.5,1719.81 1410.73,1723.79C1403.96,1727.78 1397.45,1729.85 1391.19,1730.01C1384.92,1730.18 1379.04,1728.95 1373.55,1726.34C1368.06,1723.73 1363.05,1720.11 1358.51,1715.47C1353.98,1710.83 1350.02,1705.64 1346.63,1699.9ZM1301.3,1440.01L1302.18,1440.15L1303.08,1440.2L1303.46,1440.35L1303.88,1440.41L1304.67,1440.82L1305.5,1441.14L1305.83,1441.41L1306.2,1441.6L1306.83,1442.23L1307.52,1442.79L1307.75,1443.15L1308.04,1443.44L1308.45,1444.24L1308.93,1444.99L1309.04,1445.39L1309.23,1445.77L1309.37,1446.65L1309.59,1447.51L1309.57,1447.93L1309.63,1448.34L1309.5,1449.22L1309.44,1450.11C1309.39,1450.35 1309.34,1450.58 1309.28,1450.82C1308.87,1452.55 1308.39,1454.26 1307.88,1455.96C1307.28,1457.95 1306.62,1459.92 1305.93,1461.87C1304.1,1466.99 1301.97,1471.99 1299.57,1476.86C1295.03,1486.07 1289.5,1494.81 1282.97,1502.74C1282.11,1503.77 1281.24,1504.8 1280.35,1505.8C1282.4,1505.85 1284.45,1505.97 1286.49,1506.18C1290.34,1506.58 1294.17,1507.29 1297.9,1508.32C1301.5,1509.3 1305,1510.58 1308.39,1512.12C1311.08,1513.35 1313.69,1514.75 1316.22,1516.29C1316.52,1516.46 1316.83,1516.64 1317.14,1516.82C1318.8,1517.75 1320.5,1518.61 1322.23,1519.39C1325.13,1520.71 1328.14,1521.8 1331.21,1522.66C1334.69,1523.65 1337.2,1524.69 1340.82,1524.79C1344.38,1524.88 1347.24,1529.84 1343.74,1532.1C1311.55,1552.95 1277.46,1570.88 1242.03,1585.56C1222.33,1593.72 1202.21,1600.88 1181.77,1607C1161.73,1613.01 1141.38,1618.01 1120.84,1621.98C1102.28,1625.57 1083.55,1628.32 1064.74,1630.24C1042.9,1632.46 1020.94,1633.55 998.976,1633.51C979.707,1633.48 960.439,1632.59 941.251,1630.82C920.426,1628.9 899.695,1625.95 879.163,1621.98C859.256,1618.13 839.536,1613.32 820.094,1607.56C798.403,1601.14 777.06,1593.54 756.188,1584.82C720.218,1569.79 686.08,1552.08 653.489,1530.69C651.133,1529.14 653.161,1524.75 656.326,1524.19C660.578,1523.44 666.74,1522.3 670.769,1520.74C673.196,1519.8 675.566,1518.71 677.86,1517.48C678.344,1517.22 678.825,1516.95 679.302,1516.68C679.53,1516.55 679.759,1516.42 679.985,1516.29C680.337,1516.07 680.687,1515.86 681.04,1515.65C681.318,1515.49 681.596,1515.33 681.875,1515.17C683.718,1514.12 685.599,1513.14 687.525,1512.25C690.814,1510.74 694.22,1509.47 697.705,1508.48C701.73,1507.34 705.857,1506.57 710.02,1506.15C711.858,1505.97 713.702,1505.86 715.548,1505.81C713.512,1503.5 711.571,1501.1 709.729,1498.63C704.209,1491.24 699.567,1483.19 695.821,1474.75C693.633,1469.83 691.743,1464.76 690.198,1459.59C689.642,1457.74 689.131,1455.87 688.676,1453.98C688.343,1452.61 688.038,1451.22 687.79,1449.82L687.774,1449.73C687.756,1448.93 687.622,1448.12 687.72,1447.32C687.818,1446.53 688.034,1445.74 688.355,1445C689.004,1443.52 690.072,1442.25 691.429,1441.37C692.1,1440.93 692.842,1440.58 693.611,1440.35C694.379,1440.12 695.198,1440.12 695.991,1440.01L710.633,1440.01C710.75,1439.33 710.977,1438.67 711.119,1438.01L736.851,1371.91L545.293,1472.28L546.262,1473.21C576.827,1502.53 610.221,1528.9 645.839,1551.83C678.672,1572.95 713.392,1591.15 749.464,1606.09C770.487,1614.8 791.966,1622.41 813.786,1628.87C833.915,1634.83 854.332,1639.81 874.942,1643.8C894.156,1647.52 913.538,1650.37 933.007,1652.35C955.613,1654.64 978.338,1655.77 1001.06,1655.73C1021,1655.7 1040.93,1654.78 1060.79,1652.95C1082.34,1650.96 1103.8,1647.91 1125.06,1643.8C1146.33,1639.68 1167.39,1634.51 1188.15,1628.29C1209.94,1621.77 1231.39,1614.09 1252.38,1605.32C1290.53,1589.38 1327.14,1569.81 1361.6,1546.97C1394.53,1525.14 1425.48,1500.35 1453.97,1472.99L1268.27,1370.2L1282.95,1439.27C1282.97,1439.51 1282.99,1439.75 1283.02,1440.01L1301.3,1440.01ZM1543.62,1594.49L1519.72,1618.36C1526.52,1625.38 1533.75,1630.1 1541.39,1632.51C1549.04,1634.93 1556.71,1635.53 1564.41,1634.33C1572.12,1633.13 1579.63,1630.39 1586.97,1626.1C1594.3,1621.81 1601.06,1616.57 1607.25,1610.39C1614.9,1602.75 1620.74,1595.13 1624.78,1587.54C1628.82,1579.95 1631.2,1572.59 1631.94,1565.47C1632.68,1558.34 1631.84,1551.59 1629.44,1545.19C1627.03,1538.8 1623.27,1533.04 1618.13,1527.9C1611.85,1521.62 1605.36,1517.79 1598.66,1516.42C1591.95,1515.06 1585.56,1515 1579.49,1516.25C1573.41,1517.51 1567.96,1519.44 1563.14,1522.06C1558.32,1524.67 1554.65,1526.82 1552.14,1528.5C1543.34,1533.73 1536.18,1537.94 1530.68,1541.13C1525.18,1544.33 1520.62,1546.58 1517.01,1547.88C1513.39,1549.19 1510.49,1549.58 1508.29,1549.06C1506.09,1548.53 1503.89,1547.17 1501.69,1544.97C1499.28,1542.56 1497.82,1540.04 1497.29,1537.42C1496.77,1534.8 1496.8,1532.16 1497.38,1529.49C1497.95,1526.82 1499.03,1524.28 1500.6,1521.87C1502.17,1519.46 1503.96,1517.26 1505.95,1515.27C1508.99,1512.24 1512.05,1509.7 1515.14,1507.65C1518.24,1505.61 1521.4,1504.23 1524.65,1503.5C1527.9,1502.77 1531.23,1502.9 1534.63,1503.89C1538.03,1504.89 1541.52,1506.96 1545.08,1510.11L1568.97,1486.24C1562.48,1479.74 1555.73,1475.44 1548.71,1473.34C1541.69,1471.24 1534.62,1470.82 1527.5,1472.07C1520.37,1473.32 1513.46,1475.99 1506.75,1480.07C1500.05,1484.15 1493.76,1489.13 1487.89,1494.99C1482.86,1500.02 1478.51,1505.72 1474.84,1512.11C1471.17,1518.5 1468.75,1525.1 1467.6,1531.91C1466.44,1538.72 1466.75,1545.47 1468.53,1552.18C1470.31,1558.88 1474.07,1565.12 1479.83,1570.88C1484.96,1576.02 1490.3,1579.43 1495.85,1581.11C1501.4,1582.78 1506.96,1583.26 1512.51,1582.53C1518.06,1581.8 1523.59,1580.2 1529.09,1577.75C1534.59,1575.29 1539.96,1572.49 1545.2,1569.35C1550.44,1566.42 1555.52,1563.43 1560.45,1560.4C1565.37,1557.36 1570.04,1554.9 1574.44,1553.02C1578.84,1551.14 1582.95,1550.17 1586.77,1550.12C1590.6,1550.07 1594.03,1551.57 1597.06,1554.61C1599.89,1557.43 1601.49,1560.5 1601.85,1563.8C1602.22,1567.1 1601.82,1570.37 1600.67,1573.62C1599.51,1576.87 1597.86,1579.93 1595.71,1582.81C1593.56,1585.69 1591.39,1588.23 1589.19,1590.43C1585.94,1593.67 1582.4,1596.42 1578.58,1598.67C1574.75,1600.92 1570.9,1602.36 1567.02,1602.99C1563.15,1603.61 1559.22,1603.3 1555.24,1602.04C1551.26,1600.78 1547.38,1598.26 1543.62,1594.49ZM405.329,1543.43L381.01,1519.99C374.117,1526.92 369.537,1534.24 367.268,1541.93C365,1549.62 364.538,1557.3 365.884,1564.98C367.23,1572.65 370.118,1580.12 374.547,1587.37C378.976,1594.62 384.337,1601.29 390.63,1607.35C398.416,1614.86 406.143,1620.56 413.811,1624.45C421.479,1628.34 428.88,1630.59 436.016,1631.19C443.152,1631.79 449.892,1630.83 456.237,1628.31C462.582,1625.78 468.273,1621.9 473.311,1616.68C479.48,1610.28 483.184,1603.71 484.422,1596.98C485.66,1590.26 485.595,1583.87 484.227,1577.81C482.858,1571.76 480.821,1566.35 478.114,1561.58C475.407,1556.81 473.192,1553.18 471.47,1550.7C466.072,1542 461.725,1534.93 458.429,1529.49C455.134,1524.05 452.798,1519.53 451.422,1515.94C450.047,1512.36 449.601,1509.46 450.084,1507.25C450.567,1505.04 451.888,1502.81 454.047,1500.57C456.412,1498.12 458.899,1496.61 461.508,1496.04C464.117,1495.46 466.762,1495.44 469.443,1495.97C472.125,1496.5 474.684,1497.52 477.122,1499.05C479.56,1500.58 481.792,1502.32 483.819,1504.27C486.912,1507.25 489.508,1510.27 491.607,1513.32C493.707,1516.37 495.153,1519.52 495.945,1522.75C496.738,1525.98 496.668,1529.31 495.736,1532.73C494.803,1536.15 492.799,1539.67 489.722,1543.29L514.041,1566.74C520.416,1560.12 524.586,1553.29 526.552,1546.23C528.518,1539.18 528.807,1532.1 527.419,1525C526.031,1517.9 523.233,1511.04 519.026,1504.41C514.818,1497.78 509.727,1491.59 503.754,1485.83C498.634,1480.89 492.846,1476.65 486.389,1473.1C479.933,1469.56 473.29,1467.27 466.461,1466.24C459.632,1465.21 452.882,1465.65 446.211,1467.56C439.541,1469.46 433.378,1473.35 427.723,1479.21C422.685,1484.44 419.38,1489.84 417.806,1495.42C416.232,1501.01 415.863,1506.57 416.698,1512.1C417.533,1517.64 419.232,1523.14 421.794,1528.59C424.356,1534.04 427.257,1539.36 430.495,1544.54C433.524,1549.72 436.602,1554.75 439.73,1559.62C442.858,1564.48 445.405,1569.1 447.371,1573.46C449.337,1577.83 450.382,1581.92 450.504,1585.74C450.627,1589.56 449.197,1593.02 446.216,1596.11C443.44,1598.99 440.406,1600.65 437.113,1601.08C433.82,1601.5 430.54,1601.17 427.272,1600.08C424.004,1598.98 420.91,1597.39 417.99,1595.3C415.071,1593.2 412.491,1591.08 410.251,1588.92C406.944,1585.73 404.13,1582.25 401.808,1578.46C399.486,1574.68 397.975,1570.86 397.275,1567C396.576,1563.13 396.818,1559.2 398.001,1555.19C399.185,1551.19 401.628,1547.27 405.329,1543.43ZM1290.09,1456.67L706.74,1456.67C707.35,1458.59 708.016,1460.48 708.727,1462.35C709.787,1465.13 710.957,1467.87 712.233,1470.56C716.014,1478.53 720.733,1486.07 726.386,1492.85C728.969,1495.95 731.746,1498.88 734.707,1501.62C737.613,1504.31 740.694,1506.82 743.929,1509.1C746.99,1511.26 750.187,1513.23 753.493,1515C757.272,1517.01 761.192,1518.76 765.211,1520.24C770.932,1522.34 776.844,1523.9 782.842,1524.99C784.462,1525.15 786.088,1525.26 787.715,1525.33L787.785,1525.33C792.085,1525.16 796.379,1524.67 800.593,1523.8C804.13,1523.06 807.609,1522.04 810.979,1520.74C813.407,1519.8 815.776,1518.71 818.07,1517.48C818.555,1517.22 819.035,1516.95 819.513,1516.68C819.741,1516.55 819.97,1516.42 820.196,1516.29C820.548,1516.07 820.898,1515.86 821.251,1515.65C821.528,1515.49 821.807,1515.33 822.086,1515.17C823.928,1514.12 825.81,1513.14 827.735,1512.25C831.025,1510.74 834.431,1509.47 837.916,1508.48C841.94,1507.34 846.068,1506.57 850.231,1506.15C852.765,1505.9 855.311,1505.78 857.857,1505.78C860.819,1505.78 863.781,1505.94 866.723,1506.29C870.367,1506.71 873.979,1507.41 877.513,1508.4C881.401,1509.49 885.191,1510.91 888.833,1512.65C891.12,1513.75 893.346,1514.96 895.51,1516.29C895.816,1516.46 896.123,1516.64 896.432,1516.82C898.245,1517.84 900.101,1518.77 902.003,1519.62C904.912,1520.9 907.917,1521.96 910.984,1522.81C914.3,1523.72 917.686,1524.37 921.099,1524.79C923.325,1525.06 925.562,1525.23 927.802,1525.33L927.954,1525.33C931.842,1525.18 935.723,1524.78 939.547,1524.05C943.53,1523.3 947.449,1522.2 951.231,1520.74C953.658,1519.8 956.027,1518.71 958.322,1517.48C958.806,1517.22 959.286,1516.95 959.764,1516.68C959.992,1516.55 960.221,1516.42 960.447,1516.29C960.799,1516.07 961.149,1515.86 961.502,1515.65C961.78,1515.49 962.058,1515.33 962.337,1515.17C964.18,1514.12 966.061,1513.14 967.987,1512.25C971.276,1510.74 974.682,1509.47 978.167,1508.48C982.192,1507.34 986.319,1506.57 990.482,1506.15C993.027,1505.9 995.583,1505.78 998.14,1505.78C1000.71,1505.78 1003.28,1505.9 1005.84,1506.15C1009.9,1506.56 1013.92,1507.31 1017.85,1508.4C1021.74,1509.49 1025.53,1510.91 1029.17,1512.65C1031.45,1513.75 1033.68,1514.96 1035.84,1516.29C1036.15,1516.46 1036.46,1516.64 1036.77,1516.82C1038.35,1517.7 1039.96,1518.53 1041.6,1519.29C1044.42,1520.57 1047.33,1521.65 1050.3,1522.52C1053.69,1523.51 1057.15,1524.22 1060.64,1524.69C1063.13,1525.02 1065.63,1525.22 1068.14,1525.33L1068.21,1525.33C1072.86,1525.15 1077.5,1524.59 1082.05,1523.57C1085.32,1522.84 1088.53,1521.86 1091.65,1520.64C1093.99,1519.72 1096.28,1518.67 1098.49,1517.48C1098.98,1517.22 1099.46,1516.95 1099.93,1516.68C1100.16,1516.55 1100.39,1516.42 1100.62,1516.29C1100.97,1516.08 1101.32,1515.86 1101.67,1515.65C1101.95,1515.49 1102.23,1515.33 1102.51,1515.17C1104.26,1514.17 1106.05,1513.24 1107.87,1512.38C1111.25,1510.81 1114.75,1509.5 1118.34,1508.48C1122.76,1507.23 1127.3,1506.42 1131.87,1506.04C1133.3,1505.92 1134.73,1505.85 1136.16,1505.81C1136.67,1505.8 1137.19,1505.79 1137.7,1505.78C1137.81,1505.78 1137.91,1505.78 1138.01,1505.78C1138.11,1505.78 1138.21,1505.78 1138.31,1505.78C1138.31,1505.78 1138.31,1505.78 1138.31,1505.78C1138.49,1505.78 1138.74,1505.78 1138.92,1505.78C1139.33,1505.79 1139.74,1505.79 1140.15,1505.8C1141.48,1505.83 1142.81,1505.89 1144.13,1505.99C1148.81,1506.34 1153.45,1507.14 1157.97,1508.4C1161.96,1509.51 1165.84,1510.99 1169.57,1512.79C1171.76,1513.85 1173.89,1515.02 1175.96,1516.29C1176.27,1516.46 1176.58,1516.64 1176.89,1516.82C1178.62,1517.79 1180.4,1518.69 1182.21,1519.51C1185.2,1520.84 1188.29,1521.94 1191.44,1522.81C1195.01,1523.79 1198.67,1524.47 1202.35,1524.88C1204.31,1525.1 1206.28,1525.24 1208.26,1525.33L1208.33,1525.33C1212.48,1525.17 1216.63,1524.71 1220.71,1523.88C1222.67,1523.38 1224.61,1522.81 1226.53,1522.19C1231.69,1520.51 1236.7,1518.39 1241.49,1515.83C1241.59,1515.77 1241.69,1515.71 1241.79,1515.65C1242.07,1515.49 1242.35,1515.33 1242.63,1515.17C1243.35,1514.76 1244.08,1514.36 1244.81,1513.97C1247.7,1512.26 1250.51,1510.39 1253.2,1508.38C1255.33,1506.78 1257.39,1505.09 1259.38,1503.32C1268.57,1495.13 1276.13,1485.2 1282.05,1474.43C1282.94,1472.8 1283.8,1471.16 1284.62,1469.49C1286.68,1465.33 1288.5,1461.05 1290.09,1456.67ZM1306.24,1128.03L1469.08,1458.01C1492.01,1434.52 1513.19,1409.33 1532.37,1382.7C1555.13,1351.11 1575.07,1317.51 1591.87,1282.39C1606.13,1252.58 1618.12,1221.7 1627.7,1190.07C1637.64,1157.22 1644.98,1123.59 1649.64,1089.58C1651.21,1078.12 1652.47,1066.61 1653.43,1055.07L1306.24,1128.03ZM346.31,1051.88C347.352,1065.17 348.797,1078.42 350.647,1091.63C355.314,1124.94 362.556,1157.88 372.304,1190.07C382.072,1222.33 394.353,1253.82 408.989,1284.18C426.321,1320.13 446.954,1354.48 470.523,1386.69C487.196,1409.47 505.337,1431.18 524.79,1451.64L695.645,1130.53L346.31,1051.88ZM1263.69,1348.62L1263.86,1348.71L1421.68,1436.07L1244.01,1256.01L1263.69,1348.62ZM712.504,1134.32L552.269,1435.48L809.931,1179.78C811.041,1179 811.622,1178.59 812.23,1178.3L819.935,1158.51L712.504,1134.32ZM731.072,1432.69L981.44,1432.69L981.44,789.616C897.984,1003.98 814.528,1218.34 731.072,1432.69ZM1013.23,1432.67L1264.51,1432.67L1013.23,250.298L1013.23,1432.67ZM1191.37,1008.33L1217.16,1129.72L1794.8,1008.33L1191.37,1008.33ZM843.741,852.665L198.996,990.106L885.498,990.106L911.536,923.226C911.348,923.069 911.158,922.914 910.962,922.768L843.741,852.665ZM1302.69,873.43L1653.52,945.964C1653.2,941.98 1652.83,937.998 1652.44,934.021C1650.45,914.203 1647.57,894.475 1643.78,874.92C1637.82,844.094 1629.63,813.7 1619.28,784.056C1609.3,755.472 1597.33,727.587 1583.48,700.665C1565.85,666.386 1545.18,633.674 1521.81,603.015C1507.48,584.209 1492.13,566.177 1475.87,549.017L1302.69,873.43ZM523.245,549.954C506.856,567.31 491.408,585.554 476.996,604.584C453.919,635.053 433.499,667.532 416.068,701.548C401.801,729.389 389.535,758.254 379.408,787.854C369.347,817.262 361.399,847.391 355.64,877.934C351.754,898.544 348.864,919.341 346.973,940.229C346.933,940.669 346.894,941.109 346.855,941.549L686.007,869.251L523.245,549.954ZM1163.79,844.711L1285.68,869.912L1450.36,561.419L1163.79,844.711ZM841.933,828.701L867.269,718.124L561.254,555.73L841.933,828.701ZM871.124,701.301L952.549,345.928C928.889,347.624 905.321,350.598 881.983,354.847C856.334,359.517 830.966,365.728 806.062,373.439C780.858,381.243 756.13,390.582 732.059,401.385C700.4,415.593 669.88,432.33 640.87,451.371C609.305,472.089 579.53,495.531 551.972,521.342C549.571,523.59 547.187,525.857 544.82,528.142L871.124,701.301ZM1715.81,526.789L1576.99,603.62L1610.13,663.505C1616.01,674.134 1622.9,682.383 1630.81,688.252C1638.71,694.121 1647.23,697.959 1656.36,699.765C1665.49,701.571 1675.04,701.403 1685.03,699.261C1695.02,697.119 1705.07,693.25 1715.18,687.654C1726.72,681.27 1735.89,674.122 1742.68,666.212C1749.48,658.301 1754.17,649.949 1756.75,641.154C1759.34,632.359 1759.92,623.316 1758.5,614.025C1757.09,604.735 1753.9,595.617 1748.95,586.674L1715.81,526.789ZM1125.12,696.632L1449.42,522.651L1448.75,522.015C1420.51,495.487 1389.93,471.451 1357.48,450.29C1328.4,431.334 1297.83,414.686 1266.12,400.572C1241.7,389.703 1216.62,380.338 1191.05,372.551C1166.42,365.05 1141.34,359.015 1116,354.483C1094.37,350.615 1072.55,347.842 1050.64,346.165L1125.12,696.632ZM402.064,640.037L293.907,509.309L274.126,543.891L352.154,631.963L235.854,609.851L217.058,644.099L384.222,670.968L402.064,640.037ZM1619.55,619.941L1707.04,571.518L1719.09,593.295C1723.25,600.813 1725.68,607.724 1726.38,614.027C1727.07,620.331 1726.27,626.15 1723.97,631.485C1721.68,636.82 1718.09,641.728 1713.2,646.21C1708.31,650.691 1702.37,654.869 1695.37,658.743C1687.73,662.975 1680.71,665.59 1674.32,666.587C1667.92,667.584 1662.18,667.377 1657.08,665.966C1651.98,664.554 1647.57,662.169 1643.85,658.811C1640.13,655.452 1637.05,651.569 1634.61,647.162L1619.55,619.941ZM389.728,398.182L457.908,553.509L482.988,528.937L467.15,494.989L509.533,453.466L542.832,470.308L568.706,444.958L415.284,373.143L389.728,398.182ZM1544.52,335.27L1434.03,449.135L1457.47,471.885L1531.44,395.656L1531.76,395.965L1505.15,518.158L1530.19,542.455L1640.69,428.59L1617.24,405.84L1543.12,482.229L1542.8,481.919L1569.4,359.412L1544.52,335.27ZM455.463,470.041L429.48,413.989L429.798,413.678L484.829,441.27L455.463,470.041ZM1284.32,271.401C1278.9,281.604 1275.4,291.954 1273.85,302.453C1272.29,312.951 1272.72,323.036 1275.13,332.706C1277.53,342.376 1282.03,351.354 1288.62,359.638C1295.2,367.922 1303.86,374.916 1314.58,380.62C1325.44,386.394 1336.11,389.677 1346.59,390.471C1357.08,391.265 1367,389.957 1376.37,386.547C1385.73,383.137 1394.33,377.852 1402.16,370.693C1410,363.533 1416.63,354.852 1422.06,344.649C1427.62,334.185 1431.22,323.639 1432.84,313.009C1434.47,302.38 1434.11,292.165 1431.77,282.363C1429.43,272.562 1425.02,263.504 1418.54,255.19C1412.05,246.875 1403.38,239.831 1392.53,234.057C1381.8,228.353 1371.14,225.119 1360.56,224.356C1349.98,223.593 1339.97,224.982 1330.53,228.523C1321.1,232.063 1312.43,237.479 1304.53,244.769C1296.62,252.06 1289.89,260.937 1284.32,271.401ZM714.694,340.443L726.339,354.622L745.919,344.113L705.356,268.533L646.615,300.059L658.91,322.968L689.847,306.364C694.187,316.645 694.967,325.852 692.187,333.985C689.406,342.119 682.925,348.918 672.743,354.383C665.825,358.096 659.233,359.91 652.967,359.826C646.701,359.743 640.875,358.287 635.491,355.46C630.107,352.633 625.241,348.814 620.892,344.002C616.544,339.189 612.794,333.846 609.641,327.972C606.349,321.837 603.846,315.53 602.135,309.05C600.423,302.571 599.859,296.274 600.445,290.159C601.03,284.045 603.02,278.353 606.413,273.085C609.807,267.817 614.963,263.326 621.881,259.613C629.322,255.62 636.704,254.18 644.027,255.294C651.35,256.408 658.027,260.39 664.058,267.242L693.429,251.479C688.372,243.936 682.435,238.043 675.618,233.8C668.801,229.556 661.563,226.799 653.904,225.529C646.245,224.26 638.476,224.352 630.597,225.806C622.719,227.26 615.19,229.914 608.01,233.767C597.306,239.512 588.695,246.571 582.176,254.945C575.658,263.32 571.248,272.412 568.947,282.222C566.646,292.032 566.328,302.248 567.994,312.872C569.66,323.495 573.295,334.028 578.9,344.471C584.365,354.653 591.028,363.308 598.889,370.438C606.751,377.568 615.371,382.82 624.748,386.194C634.125,389.569 644.087,390.821 654.633,389.953C665.18,389.084 675.806,385.778 686.51,380.033C693.297,376.39 699.267,371.379 704.418,364.999C709.569,358.62 712.995,350.435 714.694,340.443ZM1315.12,287.783C1318.39,281.635 1322.25,276.049 1326.68,271.024C1331.12,265.999 1336.04,262.03 1341.44,259.118C1346.85,256.205 1352.69,254.695 1358.95,254.587C1365.22,254.479 1371.82,256.269 1378.75,259.956C1385.68,263.642 1390.86,268.113 1394.27,273.369C1397.68,278.624 1399.7,284.308 1400.31,290.42C1400.91,296.533 1400.37,302.832 1398.69,309.318C1397,315.803 1394.52,322.12 1391.25,328.268C1388.12,334.154 1384.39,339.511 1380.06,344.34C1375.73,349.168 1370.88,353.006 1365.51,355.854C1360.13,358.701 1354.31,360.179 1348.05,360.286C1341.78,360.394 1335.18,358.604 1328.25,354.918C1321.32,351.231 1316.14,346.76 1312.73,341.505C1309.32,336.249 1307.29,330.598 1306.65,324.551C1306,318.504 1306.47,312.336 1308.06,306.046C1309.64,299.757 1312,293.669 1315.12,287.783ZM854.304,155.983L818.283,321.747L853.013,316.585L860.127,279.806L918.816,271.083L935.88,304.268L971.709,298.943L889.693,150.723L854.304,155.983ZM1089.52,146.426L1061.19,302.543L1136.84,316.271C1143.84,317.54 1150.81,317.902 1157.76,317.357C1164.71,316.811 1171.11,315.185 1176.94,312.48C1182.78,309.775 1187.75,305.821 1191.85,300.619C1195.96,295.416 1198.73,288.879 1200.15,281.008C1201.93,271.242 1201.07,262.466 1197.59,254.683C1194.11,246.899 1187.81,240.75 1178.69,236.235C1186.3,234.152 1192.36,230.81 1196.89,226.211C1201.41,221.611 1204.38,215.375 1205.81,207.504C1207.14,200.216 1207.04,193.875 1205.54,188.483C1204.03,183.09 1201.36,178.503 1197.53,174.721C1193.7,170.939 1188.85,167.837 1182.96,165.414C1177.08,162.991 1170.42,161.106 1162.98,159.757L1089.52,146.426ZM1100.36,282.097L1108.13,239.241L1145.52,246.025C1152.96,247.374 1158.62,250.172 1162.52,254.417C1166.42,258.663 1167.64,264.794 1166.18,272.811C1165.44,276.893 1164.14,280.12 1162.28,282.492C1160.42,284.865 1158.18,286.605 1155.58,287.712C1152.96,288.819 1150.07,289.423 1146.89,289.524C1143.71,289.624 1140.44,289.37 1137.09,288.762L1100.36,282.097ZM865.317,252.749L877.199,192.121L877.639,192.056L905.981,246.705L865.317,252.749ZM1112.38,215.845L1119,179.33L1151.15,185.163C1154.21,185.718 1157.11,186.509 1159.86,187.535C1162.61,188.561 1164.96,189.928 1166.91,191.637C1168.86,193.345 1170.28,195.485 1171.17,198.055C1172.06,200.625 1172.17,203.733 1171.51,207.377C1170.32,213.936 1167.49,218.317 1163.03,220.518C1158.56,222.719 1153.27,223.264 1147.14,222.154L1112.38,215.845Z"/>
</svg>
