<?xml version="1.0" encoding="UTF-8" standalone="no"?>
<!DOCTYPE svg PUBLIC "-//W3C//DTD SVG 1.1//EN" "http://www.w3.org/Graphics/SVG/1.1/DTD/svg11.dtd">
<svg width="100%" height="100%" viewBox="0 0 1800 1800" version="1.1" xmlns="http://www.w3.org/2000/svg" xmlns:xlink="http://www.w3.org/1999/xlink" xml:space="preserve" xmlns:serif="http://www.serif.com/" style="fill-rule:evenodd;clip-rule:evenodd;stroke-linejoin:round;stroke-miterlimit:2;">
    <g transform="matrix(1.63596,0,0,1.63596,-456.024,-351.155)">
        <circle cx="828.887" cy="764.784" r="534.187" style="fill:white;"/>
    </g>
    <g transform="matrix(1.11824,0,0,1.11824,-65.6959,-91.5159)">
        <path d="M1524.37,960.791C1524.37,965.407 1520.04,968.003 1511.39,968.58C1485.42,969.734 1468.98,972.764 1462.06,977.668C1455.13,982.573 1447.34,997.142 1438.69,1021.38C1433.49,1034.65 1425.7,1054.84 1415.32,1081.96C1407.82,1104.46 1395.99,1139.08 1379.83,1185.82C1371.76,1207.75 1359.64,1240.92 1343.48,1285.35L1301.07,1403.92C1271.07,1487.59 1254.34,1535.77 1250.87,1548.46C1248.57,1555.96 1245.97,1559.71 1243.09,1559.71C1239.62,1559.71 1236.74,1556.97 1234.43,1551.49C1232.12,1546.01 1225.49,1526.25 1214.52,1492.2C1200.1,1447.2 1179.04,1391.23 1151.34,1324.3L1121.92,1253.33C1064.22,1376.81 1022.67,1474.89 997.285,1547.6C994.4,1555.1 991.226,1558.85 987.764,1558.85C985.456,1558.85 978.244,1543.56 966.127,1512.98L860.536,1237.75C835.149,1168.51 802.548,1086 762.736,990.218C758.697,979.832 752.061,973.485 742.829,971.177C737.636,969.446 727.539,968.58 712.537,968.58C697.535,968.58 690.034,965.984 690.034,960.791C690.034,956.175 694.073,953.867 702.151,953.867C701.574,953.867 711.095,953.867 730.712,953.867C750.907,954.444 768.217,954.732 782.642,954.732L815.531,954.732L902.946,953.002C905.831,953.002 910.735,952.713 917.659,952.136L929.776,952.136C937.277,952.136 941.027,955.021 941.027,960.791C941.027,965.984 931.795,968.292 913.332,967.715C903.523,967.715 898.618,970.311 898.618,975.504C898.618,977.812 899.195,980.409 900.349,983.294C913.043,1018.49 932.372,1071 958.337,1140.81L1047.48,1371.04L1108.07,1232.56C1099.41,1207.17 1082.68,1161.59 1057.87,1095.81C1053.25,1085.42 1046.91,1069.56 1038.83,1048.21C1037.1,1043.01 1034.21,1034.93 1030.17,1023.97C1020.36,997.43 1012.29,981.419 1005.94,975.937C999.592,970.456 986.322,967.715 966.127,967.715C960.357,967.138 957.472,964.541 957.472,959.925C957.472,954.732 962.953,952.136 973.916,952.136C972.185,952.136 975.214,952.425 983.004,953.002C990.793,953.579 1003.63,953.867 1021.52,953.867L1323.58,953.002C1334.54,952.425 1340.02,955.021 1340.02,960.791C1340.02,965.407 1335.69,967.715 1327.04,967.715C1286.07,967.138 1262.41,974.062 1256.07,988.487C1246.26,1004.07 1225.78,1048.21 1194.62,1120.91C1214.81,1172.84 1247.12,1255.06 1291.55,1367.57C1300.78,1343.92 1310.59,1317.66 1320.98,1288.81C1330.21,1264.58 1345.21,1223.32 1365.99,1165.05C1379.26,1126.39 1390.51,1094.94 1399.74,1070.71C1415.32,1029.74 1423.11,1003.2 1423.11,991.083C1423.11,979.543 1417.34,972.331 1405.8,969.446C1401.76,968.292 1391.37,967.715 1374.64,967.715C1365.41,967.715 1360.79,965.407 1360.79,960.791C1360.79,956.175 1365.12,953.867 1373.77,953.867L1442.15,955.598C1471.58,956.175 1493.79,955.598 1508.79,953.867L1515.71,953.867C1521.49,953.867 1524.37,956.175 1524.37,960.791ZM1227.51,991.083C1227.51,975.504 1213.66,967.715 1185.96,967.715C1157.69,967.715 1143.55,972.908 1143.55,983.294C1143.55,997.719 1157.4,1034.65 1185.1,1094.08C1213.37,1035.22 1227.51,1000.89 1227.51,991.083ZM588.402,638.698L588.402,816.903C588.402,851.293 590.347,872.943 594.238,881.853C598.129,890.764 604.974,897.876 614.773,903.191C624.571,908.506 642.872,911.163 669.675,911.163C676.71,911.163 681.033,913.044 681.008,919.77C680.983,926.665 677.181,928.334 669.675,928.515L369.656,928.515C364.991,928.515 359.513,927.382 359.513,919.388C359.513,911.608 365.39,911.163 369.656,911.163C396.747,911.163 415.12,908.428 424.775,902.957C434.43,897.485 441.202,890.373 445.093,881.619C448.984,872.865 450.929,851.293 450.929,816.903L450.929,404.218C450.929,369.827 448.984,348.177 445.093,339.267C441.202,330.357 434.358,323.244 424.559,317.929C414.76,312.614 396.458,309.703 369.656,309.957C363.719,310.013 359.19,309.076 358.88,301.315C358.637,295.241 363.554,292.629 369.656,292.605L642.008,292.605C712.906,292.605 764.782,297.92 797.637,308.55C830.492,319.18 857.295,338.798 878.046,367.404C898.796,396.011 909.172,429.542 909.172,467.996C909.172,514.892 893.609,553.66 862.483,584.298C842.597,603.682 814.785,618.22 779.048,627.912L763.269,631.008L880.105,928.515L741.887,928.515C738.735,928.515 735.911,926.565 734.794,923.617C722.38,890.84 651.269,703.096 631.803,651.702C628.838,643.875 621.341,638.698 612.971,638.698L588.402,638.698ZM595,326.839C593.25,326.839 591.572,327.535 590.335,328.772C589.097,330.009 588.402,331.687 588.402,333.437C588.402,375.587 588.402,605.402 588.402,605.402L613.043,605.402C653.104,605.402 683.077,601.415 702.963,593.443C722.849,585.471 738.484,571.089 749.868,550.299C761.252,529.508 766.944,502.387 766.944,468.934C766.944,420.475 756.496,384.678 735.602,361.542C714.707,338.407 681.059,326.839 634.659,326.839L595,326.839Z" style="fill-rule:nonzero;"/>
    </g>
</svg>
