<?xml version="1.0" encoding="UTF-8" standalone="no"?>
<!DOCTYPE svg PUBLIC "-//W3C//DTD SVG 1.1//EN" "http://www.w3.org/Graphics/SVG/1.1/DTD/svg11.dtd">
<svg width="100%" height="100%" viewBox="0 0 6448 4299" version="1.1" xmlns="http://www.w3.org/2000/svg" xmlns:xlink="http://www.w3.org/1999/xlink" xml:space="preserve" xmlns:serif="http://www.serif.com/" style="fill-rule:evenodd;clip-rule:evenodd;stroke-linecap:round;stroke-linejoin:round;stroke-miterlimit:1.5;">
    <g transform="matrix(1.06146,0,0,1.06146,30.4526,-151.578)">
        <circle cx="3010.46" cy="2189.98" r="682.509" style="fill:none;stroke:rgb(228,94,0);stroke-width:89.5px;"/>
    </g>
    <g transform="matrix(0.584524,0,0,0.584524,1442.72,-761.055)">
        <circle cx="3010.46" cy="2189.98" r="682.509" style="fill:none;stroke:rgb(228,94,0);stroke-width:85.54px;"/>
    </g>
    <g transform="matrix(1.00938,0,0,1.00938,-241.403,1158.36)">
        <text x="3073.88px" y="972.493px" style="font-family:'Roboto-Bold', 'Roboto';font-weight:700;font-size:272.143px;fill:white;">Y<tspan x="3235.53px 3420.7px 3597.11px " y="972.493px 972.493px 972.493px ">OUR</tspan></text>
        <text x="2866.01px" y="1214.4px" style="font-family:'Roboto-Bold', 'Roboto';font-weight:700;font-size:272.143px;fill:white;">W<tspan x="3101.28px 3251.64px 3422.6px 3587.17px 3659.93px 3825.57px " y="1214.4px 1214.4px 1214.4px 1214.4px 1214.4px 1214.4px ">EBSITE</tspan></text>
    </g>
    <g transform="matrix(0.540116,0,0,0.540116,1351.58,-40.6136)">
        <text x="3027.29px" y="972.493px" style="font-family:'Roboto-Bold', 'Roboto';font-weight:700;font-size:222.175px;fill:white;">Content</text>
        <text x="2764.54px" y="1169.98px" style="font-family:'Roboto-Bold', 'Roboto';font-weight:700;font-size:222.175px;fill:white;">De<tspan x="3027.61px 3138.48px " y="1169.98px 1169.98px ">ve</tspan>lopment</text>
    </g>
    <g transform="matrix(0.584524,0,0,0.584524,1442.72,2539)">
        <circle cx="3010.46" cy="2189.98" r="682.509" style="fill:none;stroke:rgb(228,94,0);stroke-width:85.54px;"/>
    </g>
    <g transform="matrix(0.540116,0,0,0.540116,1349.46,3348.99)">
        <text x="2967.24px" y="972.493px" style="font-family:'Roboto-Bold', 'Roboto';font-weight:700;font-size:222.175px;fill:white;">Dir<tspan x="3249.52px " y="972.493px ">e</tspan>ct<tspan x="3557.28px 3682.91px 3765.9px " y="972.493px 972.493px 972.493px ">ory</tspan></text>
    </g>
    <g transform="matrix(0.505137,0,0,0.505137,3057.02,2015.92)">
        <circle cx="3010.46" cy="2189.98" r="682.509" style="fill:none;stroke:rgb(228,94,0);stroke-width:98.98px;"/>
    </g>
    <g transform="matrix(0.540116,0,0,0.540116,2736.65,2583.28)">
        <text x="3114.84px" y="972.493px" style="font-family:'Roboto-Bold', 'Roboto';font-weight:700;font-size:222.175px;fill:white;">Social</text>
        <text x="3015.03px" y="1169.98px" style="font-family:'Roboto-Bold', 'Roboto';font-weight:700;font-size:222.175px;fill:white;">Widgets</text>
    </g>
    <g transform="matrix(0.584524,0,0,0.584524,2773.89,-35.0037)">
        <circle cx="3010.46" cy="2189.98" r="682.509" style="fill:none;stroke:rgb(228,94,0);stroke-width:85.54px;"/>
    </g>
    <g transform="matrix(0.540116,0,0,0.540116,2687.21,698.161)">
        <text x="3013.51px" y="972.493px" style="font-family:'Roboto-Bold', 'Roboto';font-weight:700;font-size:222.175px;fill:white;">Imager<tspan x="3719.63px " y="972.493px ">y</tspan></text>
        <text x="2782.39px" y="1169.98px" style="font-family:'Roboto-Bold', 'Roboto';font-weight:700;font-size:222.175px;fill:white;">Optimization</text>
    </g>
    <g transform="matrix(0.589546,0,0,0.589546,2441.63,1671.78)">
        <text x="2925.68px" y="972.493px" style="font-family:'Roboto-Bold', 'Roboto';font-weight:700;font-size:272.143px;fill:white;">W<tspan x="3159.56px " y="972.493px ">e</tspan>b 3.0</text>
    </g>
    <g transform="matrix(0.584524,0,0,0.584524,55.9591,1730.39)">
        <circle cx="3010.46" cy="2189.98" r="682.509" style="fill:none;stroke:rgb(228,94,0);stroke-width:85.54px;"/>
    </g>
    <g transform="matrix(0.540116,0,0,0.540116,-35.1772,2461.32)">
        <text x="2858.6px" y="972.493px" style="font-family:'Roboto-Bold', 'Roboto';font-weight:700;font-size:222.175px;fill:white;">Multimedia</text>
        <text x="2892.71px" y="1169.98px" style="font-family:'Roboto-Bold', 'Roboto';font-weight:700;font-size:222.175px;fill:white;">Publishing</text>
    </g>
    <g transform="matrix(0.584524,0,0,0.584524,56.3539,35.7992)">
        <circle cx="3010.46" cy="2189.98" r="682.509" style="fill:none;stroke:rgb(228,94,0);stroke-width:85.54px;"/>
    </g>
    <g transform="matrix(0.540116,0,0,0.540116,-34.7825,757.011)">
        <text x="2934.7px" y="972.493px" style="font-family:'Roboto-Bold', 'Roboto';font-weight:700;font-size:222.175px;fill:white;">Comment</text>
        <text x="3038.84px" y="1169.98px" style="font-family:'Roboto-Bold', 'Roboto';font-weight:700;font-size:222.175px;fill:white;">P<tspan x="3180.74px " y="1169.98px ">o</tspan>sting</text>
    </g>
    <g transform="matrix(0.540116,0,0,0.540116,141.496,1706.35)">
        <text x="2837.38px" y="972.493px" style="font-family:'Roboto-Bold', 'Roboto';font-weight:700;font-size:272.143px;fill:white;">RSS F<tspan x="3559.73px " y="972.493px ">e</tspan>ed</text>
    </g>
    <g transform="matrix(0.540116,0,0,0.540116,771.051,541.22)">
        <text x="3072.72px" y="972.493px" style="font-family:'Roboto-Bold', 'Roboto';font-weight:700;font-size:272.143px;fill:white;">Pr<tspan x="3344.99px " y="972.493px ">e</tspan>ss</text>
        <text x="2935.85px" y="1214.4px" style="font-family:'Roboto-Bold', 'Roboto';font-weight:700;font-size:272.143px;fill:white;">Release</text>
    </g>
    <g transform="matrix(0.540116,0,0,0.540116,1954.49,584.368)">
        <text x="3074.85px" y="972.493px" style="font-family:'Roboto-Bold', 'Roboto';font-weight:700;font-size:272.143px;fill:white;">Blogs</text>
    </g>
    <g transform="matrix(0.540116,0,0,0.540116,1964.92,2709.18)">
        <text x="3045.68px" y="972.493px" style="font-family:'Roboto-Bold', 'Roboto';font-weight:700;font-size:272.143px;fill:white;">Social</text>
        <text x="2795.86px" y="1214.4px" style="font-family:'Roboto-Bold', 'Roboto';font-weight:700;font-size:272.143px;fill:white;">Bookmark</text>
    </g>
    <g transform="matrix(0.540116,0,0,0.540116,804.648,2648.57)">
        <text x="3015.18px" y="972.493px" style="font-family:'Roboto-Bold', 'Roboto';font-weight:700;font-size:272.143px;fill:white;">Ar<tspan x="3304.2px " y="972.493px ">t</tspan>icle</text>
        <text x="2903.23px" y="1214.4px" style="font-family:'Roboto-Bold', 'Roboto';font-weight:700;font-size:272.143px;fill:white;">Cr<tspan x="3178.03px " y="1214.4px ">e</tspan>ation</text>
    </g>
    <g transform="matrix(1.38519,0,0,1.16145,-910.681,-521.348)">
        <path d="M3254.47,931.885C3414.96,968.772 3560.77,1044.25 3681.61,1148.01" style="fill:none;stroke:rgb(228,94,0);stroke-width:39.12px;"/>
    </g>
    <g transform="matrix(1.48227,0,0,1.50514,-1073.21,-754.017)">
        <path d="M3963.95,1546.61C4007.48,1658.84 4031.36,1780.84 4031.36,1908.37C4031.36,2044.67 4004.08,2174.64 3954.7,2293.13" style="fill:none;stroke:rgb(228,94,0);stroke-width:33.47px;"/>
    </g>
    <g transform="matrix(1.65081,0,0,1.65081,-1775.14,-977.377)">
        <path d="M3713.95,2639.73C3588.44,2757.26 3432.7,2842.89 3259.72,2883.64" style="fill:none;stroke:rgb(228,94,0);stroke-width:30.29px;"/>
    </g>
    <g transform="matrix(1.65081,0,0,1.65081,-1775.14,-977.377)">
        <path d="M2771.06,2876.57C2595.97,2829.9 2439.68,2736.94 2316.13,2611.63" style="fill:none;stroke:rgb(228,94,0);stroke-width:30.29px;"/>
    </g>
    <g transform="matrix(1.65081,0,0,1.65081,-1775.14,-977.377)">
        <path d="M2070.52,2199.3C2042.58,2107.21 2027.56,2009.53 2027.56,1908.37C2027.56,1804.91 2043.27,1705.09 2072.45,1611.17" style="fill:none;stroke:rgb(228,94,0);stroke-width:30.29px;"/>
    </g>
    <g transform="matrix(1.62352,0,0,1.58618,-1711.93,-916.803)">
        <path d="M2316.13,1205.11C2442.07,1077.38 2602.03,983.262 2781.23,937.513" style="fill:none;stroke:rgb(228,94,0);stroke-width:31.15px;"/>
    </g>
    <g transform="matrix(-0.369471,-1.12751,1.07052,-0.350797,4552.76,8943.28)">
        <path d="M4374.14,615.666L4529.9,850.921L4218.39,850.921L4374.14,615.666Z" style="fill:rgb(228,94,0);"/>
    </g>
    <g transform="matrix(-1.07682,-0.498238,0.473056,-1.0224,9132.28,5634.04)">
        <path d="M4374.14,615.666L4529.9,850.921L4218.39,850.921L4374.14,615.666Z" style="fill:rgb(228,94,0);"/>
    </g>
    <g transform="matrix(-0.838984,0.838984,-0.79658,-0.79658,8443.6,-2240.64)">
        <path d="M4374.14,615.666L4529.9,850.921L4218.39,850.921L4374.14,615.666Z" style="fill:rgb(228,94,0);"/>
    </g>
    <g transform="matrix(0.782477,-0.891918,0.846838,0.742929,-1904.31,6764.39)">
        <path d="M4374.14,615.666L4529.9,850.921L4218.39,850.921L4374.14,615.666Z" style="fill:rgb(228,94,0);"/>
    </g>
    <g transform="matrix(1.15995,0.249627,-0.237011,1.10132,-3285.4,-106.955)">
        <path d="M4374.14,615.666L4529.9,850.921L4218.39,850.921L4374.14,615.666Z" style="fill:rgb(228,94,0);"/>
    </g>
    <g transform="matrix(0.556463,1.04792,-0.994956,0.528338,987.06,-4343.17)">
        <path d="M4374.14,615.666L4529.9,850.921L4218.39,850.921L4374.14,615.666Z" style="fill:rgb(228,94,0);"/>
    </g>
    <path d="M3203.94,3416.31L3203.94,2916.77" style="fill:none;stroke:rgb(228,94,0);stroke-width:50px;stroke-linecap:butt;"/>
    <g transform="matrix(1,0,0,1,0,-1995.78)">
        <path d="M3203.94,3416.31L3203.94,2916.77" style="fill:none;stroke:rgb(228,94,0);stroke-width:50px;stroke-linecap:butt;"/>
    </g>
    <g transform="matrix(-0.578989,0.815336,-0.815336,-0.578989,6827.17,811.989)">
        <path d="M3203.94,3416.31L3203.94,2916.77" style="fill:none;stroke:rgb(228,94,0);stroke-width:50px;stroke-linecap:butt;"/>
    </g>
    <g transform="matrix(-0.578989,0.815336,-0.815336,-0.578989,8454.4,1967.52)">
        <path d="M3203.94,3416.31L3216.5,2842.7" style="fill:none;stroke:rgb(228,94,0);stroke-width:50px;stroke-linecap:butt;"/>
    </g>
    <g transform="matrix(0.5,0.866025,-0.866025,0.5,3480.08,-1690.37)">
        <path d="M3203.94,3416.31L3203.94,2916.77" style="fill:none;stroke:rgb(228,94,0);stroke-width:50px;stroke-linecap:butt;"/>
    </g>
    <g transform="matrix(0.5,0.866025,-0.866025,0.5,5208.47,-2688.26)">
        <path d="M3203.94,3416.31L3203.94,2916.77" style="fill:none;stroke:rgb(228,94,0);stroke-width:50px;stroke-linecap:butt;"/>
    </g>
</svg>
